<svg xmlns="http://www.w3.org/2000/svg" viewBox="0 0 900 420" font-family="'Segoe UI', system-ui, -apple-system, sans-serif">
  <defs>
    <linearGradient id="redFill" x1="0" y1="0" x2="0" y2="1">
      <stop offset="0%" stop-color="#E11D48" stop-opacity="0.25"/>
      <stop offset="100%" stop-color="#E11D48" stop-opacity="0.02"/>
    </linearGradient>
    <linearGradient id="purpleFill" x1="0" y1="0" x2="0" y2="1">
      <stop offset="0%" stop-color="#8B5CF6" stop-opacity="0.2"/>
      <stop offset="100%" stop-color="#8B5CF6" stop-opacity="0.02"/>
    </linearGradient>
    <linearGradient id="greenFill" x1="0" y1="0" x2="0" y2="1">
      <stop offset="0%" stop-color="#22C55E" stop-opacity="0.15"/>
      <stop offset="100%" stop-color="#22C55E" stop-opacity="0.02"/>
    </linearGradient>
  </defs>

  <rect width="900" height="420" rx="12" fill="#0F172A"/>
  <text x="450" y="35" text-anchor="middle" fill="#F8FAFC" font-size="18" font-weight="700">Thread Scaling (N=1024, bs=32)</text>
  <text x="450" y="55" text-anchor="middle" fill="#64748B" font-size="11">GFLOPS vs thread count. Parallel+AVX-512 peaks at 309 GFLOPS (20 threads).</text>

  <!-- Chart area: x=100..820, y=80..340 -->
  <!-- Y axis: 0 to 320 GFLOPS -->
  <!-- Scale: 260px / 320 = 0.8125px per GFLOP -->
  <!-- y = 340 - (gflops * 0.8125) -->

  <!-- Grid lines -->
  <line x1="100" y1="340" x2="820" y2="340" stroke="#334155" stroke-width="1"/>
  <line x1="100" y1="275" x2="820" y2="275" stroke="#1E293B" stroke-width="1"/>
  <line x1="100" y1="210" x2="820" y2="210" stroke="#1E293B" stroke-width="1"/>
  <line x1="100" y1="145" x2="820" y2="145" stroke="#1E293B" stroke-width="1"/>
  <line x1="100" y1="80" x2="820" y2="80" stroke="#1E293B" stroke-width="1"/>

  <!-- Y axis labels (0, 80, 160, 240, 320) -->
  <text x="90" y="344" text-anchor="end" fill="#64748B" font-size="10">0</text>
  <text x="90" y="279" text-anchor="end" fill="#64748B" font-size="10">80</text>
  <text x="90" y="214" text-anchor="end" fill="#64748B" font-size="10">160</text>
  <text x="90" y="149" text-anchor="end" fill="#64748B" font-size="10">240</text>
  <text x="90" y="84" text-anchor="end" fill="#64748B" font-size="10">320</text>

  <!-- Y axis title -->
  <text x="25" y="210" text-anchor="middle" fill="#94A3B8" font-size="11" transform="rotate(-90 25 210)">GFLOPS</text>

  <!-- X axis positions: 1=140, 2=260, 4=380, 8=500, 16=620, 20=740 -->
  <text x="140" y="358" text-anchor="middle" fill="#64748B" font-size="11">1</text>
  <text x="260" y="358" text-anchor="middle" fill="#64748B" font-size="11">2</text>
  <text x="380" y="358" text-anchor="middle" fill="#64748B" font-size="11">4</text>
  <text x="500" y="358" text-anchor="middle" fill="#64748B" font-size="11">8</text>
  <text x="620" y="358" text-anchor="middle" fill="#64748B" font-size="11">16</text>
  <text x="740" y="358" text-anchor="middle" fill="#64748B" font-size="11">20</text>

  <!-- X axis title -->
  <text x="450" y="385" text-anchor="middle" fill="#94A3B8" font-size="11">Threads</text>

  <!-- Parallel+AVX-512: 56.92, 110.07, 198.74, 215.90, 262.14, 308.99 -->
  <!-- y: 294, 251, 179, 165, 127, 89 -->

  <!-- Parallel+AVX-512 fill area -->
  <polygon points="140,294 260,251 380,179 500,165 620,127 740,89 740,340 140,340"
           fill="url(#redFill)"/>

  <!-- Parallel+AVX-512 line -->
  <polyline points="140,294 260,251 380,179 500,165 620,127 740,89"
            fill="none" stroke="#E11D48" stroke-width="2.5" stroke-linejoin="round"/>

  <!-- Parallel+AVX-512 points -->
  <circle cx="140" cy="294" r="5" fill="#E11D48" stroke="#0F172A" stroke-width="2"/>
  <circle cx="260" cy="251" r="5" fill="#E11D48" stroke="#0F172A" stroke-width="2"/>
  <circle cx="380" cy="179" r="5" fill="#E11D48" stroke="#0F172A" stroke-width="2"/>
  <circle cx="500" cy="165" r="5" fill="#E11D48" stroke="#0F172A" stroke-width="2"/>
  <circle cx="620" cy="127" r="5" fill="#E11D48" stroke="#0F172A" stroke-width="2"/>
  <circle cx="740" cy="89" r="5" fill="#E11D48" stroke="#0F172A" stroke-width="2"/>

  <!-- Parallel+AVX-512 data labels -->
  <text x="140" y="286" text-anchor="middle" fill="#FFC7D2" font-size="9">56.9</text>
  <text x="260" y="243" text-anchor="middle" fill="#FFC7D2" font-size="9">110.1</text>
  <text x="380" y="171" text-anchor="middle" fill="#FFC7D2" font-size="9">198.7</text>
  <text x="500" y="157" text-anchor="middle" fill="#FFC7D2" font-size="9">215.9</text>
  <text x="620" y="119" text-anchor="middle" fill="#FFC7D2" font-size="9">262.1</text>
  <text x="740" y="81" text-anchor="middle" fill="#FFC7D2" font-size="9">309.0</text>

  <!-- Parallel+SIMD: 30.53, 61.90, 116.34, 139.40, 157.88, 140.99 -->
  <!-- y: 315, 290, 246, 227, 212, 226 -->

  <!-- Parallel+SIMD fill area -->
  <polygon points="140,315 260,290 380,246 500,227 620,212 740,226 740,340 140,340"
           fill="url(#purpleFill)"/>

  <!-- Parallel+SIMD line -->
  <polyline points="140,315 260,290 380,246 500,227 620,212 740,226"
            fill="none" stroke="#8B5CF6" stroke-width="2.5" stroke-linejoin="round"/>

  <!-- Parallel+SIMD points -->
  <circle cx="140" cy="315" r="4" fill="#8B5CF6" stroke="#0F172A" stroke-width="2"/>
  <circle cx="260" cy="290" r="4" fill="#8B5CF6" stroke="#0F172A" stroke-width="2"/>
  <circle cx="380" cy="246" r="4" fill="#8B5CF6" stroke="#0F172A" stroke-width="2"/>
  <circle cx="500" cy="227" r="4" fill="#8B5CF6" stroke="#0F172A" stroke-width="2"/>
  <circle cx="620" cy="212" r="4" fill="#8B5CF6" stroke="#0F172A" stroke-width="2"/>
  <circle cx="740" cy="226" r="4" fill="#8B5CF6" stroke="#0F172A" stroke-width="2"/>

  <!-- Parallel+SIMD data labels -->
  <text x="140" y="330" text-anchor="middle" fill="#C4B5FD" font-size="9">30.5</text>
  <text x="260" y="305" text-anchor="middle" fill="#C4B5FD" font-size="9">61.9</text>
  <text x="380" y="261" text-anchor="middle" fill="#C4B5FD" font-size="9">116.3</text>
  <text x="500" y="242" text-anchor="middle" fill="#C4B5FD" font-size="9">139.4</text>
  <text x="620" y="205" text-anchor="middle" fill="#C4B5FD" font-size="9">157.9</text>
  <text x="740" y="219" text-anchor="middle" fill="#C4B5FD" font-size="9">141.0</text>

  <!-- Parallel (scalar): 1.17, 3.26, 5.95, 8.67, 13.35, 10.94 -->
  <!-- y: 339, 337, 335, 333, 329, 331 -->

  <!-- Parallel fill area -->
  <polygon points="140,339 260,337 380,335 500,333 620,329 740,331 740,340 140,340"
           fill="url(#greenFill)"/>

  <!-- Parallel line -->
  <polyline points="140,339 260,337 380,335 500,333 620,329 740,331"
            fill="none" stroke="#22C55E" stroke-width="2.5" stroke-linejoin="round"/>

  <!-- Parallel points -->
  <circle cx="140" cy="339" r="3" fill="#22C55E" stroke="#0F172A" stroke-width="2"/>
  <circle cx="260" cy="337" r="3" fill="#22C55E" stroke="#0F172A" stroke-width="2"/>
  <circle cx="380" cy="335" r="3" fill="#22C55E" stroke="#0F172A" stroke-width="2"/>
  <circle cx="500" cy="333" r="3" fill="#22C55E" stroke="#0F172A" stroke-width="2"/>
  <circle cx="620" cy="329" r="3" fill="#22C55E" stroke="#0F172A" stroke-width="2"/>
  <circle cx="740" cy="331" r="3" fill="#22C55E" stroke="#0F172A" stroke-width="2"/>

  <!-- Legend -->
  <rect x="220" y="64" width="12" height="12" rx="3" fill="#E11D48"/>
  <text x="237" y="75" fill="#FFC7D2" font-size="11">Parallel+AVX-512</text>
  <rect x="380" y="64" width="12" height="12" rx="3" fill="#8B5CF6"/>
  <text x="397" y="75" fill="#C4B5FD" font-size="11">Parallel+SIMD</text>
  <rect x="520" y="64" width="12" height="12" rx="3" fill="#22C55E"/>
  <text x="537" y="75" fill="#86EFAC" font-size="11">Parallel (scalar)</text>

  <!-- Peak annotation -->
  <rect x="740" y="92" width="95" height="18" rx="4" fill="#1E293B" stroke="#E11D48" stroke-width="1"/>
  <text x="787" y="105" text-anchor="middle" fill="#FFC7D2" font-size="10" font-weight="600">peak: 20t</text>
</svg>
